<?xml version="1.0" encoding="UTF-8"?>
<svg xmlns="http://www.w3.org/2000/svg" xmlns:xlink="http://www.w3.org/1999/xlink" width="262pt" height="132pt" viewBox="0 0 262 132" version="1.1">
<g id="surface37797">
<path style=" stroke:none;fill-rule:evenodd;fill:rgb(100%,100%,0%);fill-opacity:0.5;" d="M 101 67 L 101 19 L 21 19 L 21 51 C 41 51 47 59 52.667969 60.332031 C 58.332031 61.667969 63.667969 56.332031 68.332031 56.332031 C 73 56.332031 77 61.667969 84 64.332031 C 91 67 101 67 101 67 "/>
<path style=" stroke:none;fill-rule:evenodd;fill:rgb(0%,54.5%,54.5%);fill-opacity:0.5;" d="M 101 67 L 101 131 L 21 131 L 21 51 C 41 51 47 59 52.667969 60.332031 C 58.332031 61.667969 63.667969 56.332031 68.332031 56.332031 C 73 56.332031 77 61.667969 84 64.332031 C 91 67 101 67 101 67 "/>
</g>
</svg>
